<svg xmlns="http://www.w3.org/2000/svg" width="640" height="420" viewBox="0 0 640 420">
  <defs>
    <linearGradient id="c" x1="0" y1="0" x2="1" y2="1">
      <stop offset="0%" stop-color="#e2f2ff"/>
      <stop offset="100%" stop-color="#f5fbff"/>
    </linearGradient>
  </defs>
  <rect width="640" height="420" rx="24" fill="url(#c)"/>
  <g transform="translate(90,40)">
    <rect x="0" y="0" width="200" height="260" rx="20" fill="#ffffff" stroke="#e2e8f0"/>
    <circle cx="100" cy="70" r="38" fill="#cbd5e1"/>
    <rect x="36" y="120" width="128" height="90" rx="12" fill="#e2e8f0"/>
    <rect x="52" y="136" width="96" height="14" rx="7" fill="#94a3b8"/>
    <rect x="52" y="158" width="88" height="12" rx="6" fill="#cbd5e1"/>
    <rect x="52" y="178" width="80" height="12" rx="6" fill="#cbd5e1"/>
    <rect x="36" y="220" width="128" height="24" rx="12" fill="#0ea5e9"/>
    <rect x="260" y="10" width="180" height="30" rx="8" fill="#0ea5e9" opacity="0.2"/>
    <rect x="260" y="50" width="220" height="30" rx="8" fill="#0ea5e9" opacity="0.15"/>
    <rect x="260" y="100" width="220" height="160" rx="16" fill="#ffffff" stroke="#e2e8f0"/>
    <rect x="280" y="120" width="180" height="14" rx="7" fill="#64748b"/>
    <rect x="280" y="142" width="160" height="12" rx="6" fill="#cbd5e1"/>
    <rect x="280" y="164" width="170" height="12" rx="6" fill="#cbd5e1"/>
    <rect x="280" y="206" width="130" height="14" rx="7" fill="#0ea5e9"/>
  </g>
</svg>
