<svg xmlns="http://www.w3.org/2000/svg" viewBox="0 0 560 140" width="560" height="140">
  <defs>
    <linearGradient id="g" x1="0" y1="0" x2="1" y2="1">
      <stop offset="0%" stop-color="#0ea5e9"/>
      <stop offset="100%" stop-color="#2563eb"/>
    </linearGradient>
  </defs>
  <rect fill="none" width="560" height="140"/>
  <g transform="translate(10,10)">
    <path d="M62 10c20 0 36 16 36 36 0 18-14 33-32 35-6 22-11 47-18 47S40 103 34 81C16 79 2 64 2 46 2 26 18 10 38 10c8 0 16 3 22 8 6-5 14-8 22-8z" fill="url(#g)"/>
    <circle cx="58" cy="40" r="10" fill="#fff" opacity="0.65"/>
  </g>
  <text x="150" y="70" font-family="Inter, system-ui, -apple-system, Segoe UI, Roboto" font-weight="900" font-size="46" fill="#0b1220">SomniDental</text>
  <text x="150" y="104" font-family="Inter, system-ui, -apple-system, Segoe UI, Roboto" font-size="20" fill="#334155">Sleep Apnea Treatment Clinic</text>
</svg>
