<svg xmlns="http://www.w3.org/2000/svg" width="180" height="48" viewBox="0 0 300 80">
  <defs>
    <linearGradient id="g" x1="0" x2="1" y1="0" y2="1">
      <stop offset="0%" stop-color="#2563eb"/>
      <stop offset="100%" stop-color="#0ea5e9"/>
    </linearGradient>
  </defs>
  <rect x="0" y="0" width="300" height="80" fill="none"/>
  <g transform="translate(8,8)">
    <circle cx="36" cy="32" r="18" fill="url(#g)" opacity="0.15"/>
    <path d="M36 12c8 0 14 6 14 14 0 7-5 13-12 14-2 9-5 20-8 20s-6-11-8-20c-7-1-12-7-12-14 0-8 6-14 14-14 3 0 6 1 8 3 2-2 5-3 8-3z" fill="url(#g)"/>
    <path d="M30 20a10 10 0 0 0 12 12 12 12 0 1 1-12-12z" fill="#0ea5e9" opacity="0.25"/>
  </g>
  <text x="80" y="34" font-family="Inter, system-ui, -apple-system, Segoe UI, Roboto" font-weight="700" font-size="22" fill="#0f172a">SomniDental</text>
  <text x="80" y="54" font-family="Inter, system-ui, -apple-system, Segoe UI, Roboto" font-size="14" fill="#334155">Sleep Apnea Treatment Clinic</text>
</svg>
