<svg xmlns="http://www.w3.org/2000/svg" width="220" height="60" viewBox="0 0 440 120">
  <defs>
    <linearGradient id="grad" x1="0" y1="0" x2="1" y2="1">
      <stop offset="0%" stop-color="#1d4ed8"/>
      <stop offset="100%" stop-color="#0ea5e9"/>
    </linearGradient>
  </defs>
  <rect width="440" height="120" fill="none"/>
  <g transform="translate(10,15)">
    <path d="M50 10c16 0 29 13 29 29 0 15-11 28-26 29-5 18-9 37-15 37s-10-19-15-37c-15-1-26-14-26-29 0-16 13-29 29-29 6 0 12 2 16 6 4-4 10-6 16-6z" fill="url(#grad)"/>
    <circle cx="43" cy="32" r="8" fill="#0ea5e9" opacity="0.4"/>
  </g>
  <text x="110" y="55" font-family="Inter, system-ui, -apple-system, Segoe UI, Roboto" font-weight="800" font-size="32" fill="#0b1220">SomniDental</text>
  <text x="110" y="85" font-family="Inter, system-ui, -apple-system, Segoe UI, Roboto" font-size="16" fill="#334155">Sleep Apnea Treatment Clinic</text>
</svg>
